<mxfile host="app.diagrams.net" agent="Mozilla/5.0 (Windows NT 10.0; Win64; x64) AppleWebKit/537.36 (KHTML, like Gecko) Chrome/133.0.0.0 Safari/537.36 Edg/133.0.0.0" version="26.0.14">
  <diagram name="Page-1" id="0PA6BMjtCAIKHbecW0RN">
    <mxGraphModel dx="932" dy="498" grid="1" gridSize="10" guides="1" tooltips="1" connect="1" arrows="1" fold="1" page="1" pageScale="1" pageWidth="850" pageHeight="1100" math="0" shadow="0">
      <root>
        <mxCell id="0" />
        <mxCell id="1" parent="0" />
        <mxCell id="v_SGCj1ZmdLSK05w3VIH-34" value="" style="rounded=0;whiteSpace=wrap;html=1;" vertex="1" parent="1">
          <mxGeometry x="110" width="640" height="470" as="geometry" />
        </mxCell>
        <mxCell id="v_SGCj1ZmdLSK05w3VIH-2" value="&lt;b&gt;Interaction Online Bookshop&lt;/b&gt;" style="rounded=0;whiteSpace=wrap;html=1;" vertex="1" parent="1">
          <mxGeometry x="110" width="230" height="40" as="geometry" />
        </mxCell>
        <mxCell id="v_SGCj1ZmdLSK05w3VIH-3" value="" style="shape=umlActor;verticalLabelPosition=bottom;verticalAlign=top;html=1;outlineConnect=0;" vertex="1" parent="1">
          <mxGeometry x="130" y="210" width="30" height="60" as="geometry" />
        </mxCell>
        <mxCell id="v_SGCj1ZmdLSK05w3VIH-4" value="&lt;b&gt;:Online&lt;/b&gt;&lt;div&gt;&lt;b&gt;Bookshop&lt;/b&gt;&lt;/div&gt;" style="rounded=0;whiteSpace=wrap;html=1;" vertex="1" parent="1">
          <mxGeometry x="250" y="215" width="120" height="55" as="geometry" />
        </mxCell>
        <mxCell id="v_SGCj1ZmdLSK05w3VIH-7" value="" style="endArrow=none;html=1;rounded=0;entryX=-0.003;entryY=0.447;entryDx=0;entryDy=0;entryPerimeter=0;" edge="1" parent="1" target="v_SGCj1ZmdLSK05w3VIH-4">
          <mxGeometry width="50" height="50" relative="1" as="geometry">
            <mxPoint x="170" y="240" as="sourcePoint" />
            <mxPoint x="280" y="220" as="targetPoint" />
          </mxGeometry>
        </mxCell>
        <mxCell id="v_SGCj1ZmdLSK05w3VIH-8" value="&lt;b&gt;:Inventory&lt;/b&gt;" style="rounded=0;whiteSpace=wrap;html=1;" vertex="1" parent="1">
          <mxGeometry x="370" y="50" width="120" height="55" as="geometry" />
        </mxCell>
        <mxCell id="v_SGCj1ZmdLSK05w3VIH-9" value="&lt;b&gt;:Book&lt;/b&gt;" style="rounded=0;whiteSpace=wrap;html=1;" vertex="1" parent="1">
          <mxGeometry x="590" y="140" width="120" height="55" as="geometry" />
        </mxCell>
        <mxCell id="v_SGCj1ZmdLSK05w3VIH-10" value="&lt;b&gt;:Shopping&lt;/b&gt;&lt;div&gt;&lt;b&gt;Cart&lt;/b&gt;&lt;/div&gt;" style="rounded=0;whiteSpace=wrap;html=1;" vertex="1" parent="1">
          <mxGeometry x="590" y="300" width="120" height="55" as="geometry" />
        </mxCell>
        <mxCell id="v_SGCj1ZmdLSK05w3VIH-11" value="&lt;b&gt;:Order&lt;/b&gt;" style="rounded=0;whiteSpace=wrap;html=1;" vertex="1" parent="1">
          <mxGeometry x="365" y="370" width="120" height="55" as="geometry" />
        </mxCell>
        <mxCell id="v_SGCj1ZmdLSK05w3VIH-12" value="" style="endArrow=none;html=1;rounded=0;entryX=0.75;entryY=0;entryDx=0;entryDy=0;exitX=0.5;exitY=1;exitDx=0;exitDy=0;" edge="1" parent="1" source="v_SGCj1ZmdLSK05w3VIH-8" target="v_SGCj1ZmdLSK05w3VIH-4">
          <mxGeometry width="50" height="50" relative="1" as="geometry">
            <mxPoint x="470" y="300" as="sourcePoint" />
            <mxPoint x="520" y="250" as="targetPoint" />
          </mxGeometry>
        </mxCell>
        <mxCell id="v_SGCj1ZmdLSK05w3VIH-13" value="" style="endArrow=none;html=1;rounded=0;entryX=0;entryY=0.5;entryDx=0;entryDy=0;exitX=1;exitY=0.25;exitDx=0;exitDy=0;" edge="1" parent="1" source="v_SGCj1ZmdLSK05w3VIH-4" target="v_SGCj1ZmdLSK05w3VIH-9">
          <mxGeometry width="50" height="50" relative="1" as="geometry">
            <mxPoint x="450" y="108" as="sourcePoint" />
            <mxPoint x="350" y="225" as="targetPoint" />
          </mxGeometry>
        </mxCell>
        <mxCell id="v_SGCj1ZmdLSK05w3VIH-14" value="" style="endArrow=none;html=1;rounded=0;entryX=0;entryY=0.5;entryDx=0;entryDy=0;exitX=1;exitY=0.75;exitDx=0;exitDy=0;" edge="1" parent="1" source="v_SGCj1ZmdLSK05w3VIH-4" target="v_SGCj1ZmdLSK05w3VIH-10">
          <mxGeometry width="50" height="50" relative="1" as="geometry">
            <mxPoint x="380" y="239" as="sourcePoint" />
            <mxPoint x="600" y="238" as="targetPoint" />
          </mxGeometry>
        </mxCell>
        <mxCell id="v_SGCj1ZmdLSK05w3VIH-15" value="" style="endArrow=none;html=1;rounded=0;entryX=0.5;entryY=0;entryDx=0;entryDy=0;exitX=0.75;exitY=1;exitDx=0;exitDy=0;" edge="1" parent="1" source="v_SGCj1ZmdLSK05w3VIH-4" target="v_SGCj1ZmdLSK05w3VIH-11">
          <mxGeometry width="50" height="50" relative="1" as="geometry">
            <mxPoint x="390" y="249" as="sourcePoint" />
            <mxPoint x="610" y="248" as="targetPoint" />
          </mxGeometry>
        </mxCell>
        <mxCell id="v_SGCj1ZmdLSK05w3VIH-16" value="" style="endArrow=classic;html=1;rounded=0;" edge="1" parent="1">
          <mxGeometry width="50" height="50" relative="1" as="geometry">
            <mxPoint x="190" y="230" as="sourcePoint" />
            <mxPoint x="220" y="230" as="targetPoint" />
          </mxGeometry>
        </mxCell>
        <mxCell id="v_SGCj1ZmdLSK05w3VIH-17" value="1 *: find_books()" style="text;html=1;align=center;verticalAlign=middle;resizable=0;points=[];autosize=1;strokeColor=none;fillColor=none;fontSize=8;fontColor=light-dark(#254ce9, #EDEDED);" vertex="1" parent="1">
          <mxGeometry x="165" y="210" width="80" height="20" as="geometry" />
        </mxCell>
        <mxCell id="v_SGCj1ZmdLSK05w3VIH-18" value="" style="endArrow=classic;html=1;rounded=0;" edge="1" parent="1">
          <mxGeometry width="50" height="50" relative="1" as="geometry">
            <mxPoint x="355" y="177.5" as="sourcePoint" />
            <mxPoint x="370" y="157.5" as="targetPoint" />
          </mxGeometry>
        </mxCell>
        <mxCell id="v_SGCj1ZmdLSK05w3VIH-19" value="" style="endArrow=classic;html=1;rounded=0;" edge="1" parent="1">
          <mxGeometry width="50" height="50" relative="1" as="geometry">
            <mxPoint x="410" y="150" as="sourcePoint" />
            <mxPoint x="425" y="130" as="targetPoint" />
          </mxGeometry>
        </mxCell>
        <mxCell id="v_SGCj1ZmdLSK05w3VIH-20" value="" style="endArrow=classic;html=1;rounded=0;" edge="1" parent="1">
          <mxGeometry width="50" height="50" relative="1" as="geometry">
            <mxPoint x="190" y="250" as="sourcePoint" />
            <mxPoint x="220" y="250" as="targetPoint" />
          </mxGeometry>
        </mxCell>
        <mxCell id="v_SGCj1ZmdLSK05w3VIH-21" value="" style="endArrow=classic;html=1;rounded=0;" edge="1" parent="1">
          <mxGeometry width="50" height="50" relative="1" as="geometry">
            <mxPoint x="360" y="317.5" as="sourcePoint" />
            <mxPoint x="380" y="337.5" as="targetPoint" />
          </mxGeometry>
        </mxCell>
        <mxCell id="v_SGCj1ZmdLSK05w3VIH-22" value="" style="endArrow=classic;html=1;rounded=0;" edge="1" parent="1">
          <mxGeometry width="50" height="50" relative="1" as="geometry">
            <mxPoint x="480" y="210" as="sourcePoint" />
            <mxPoint x="508" y="202" as="targetPoint" />
            <Array as="points">
              <mxPoint x="480" y="210" />
            </Array>
          </mxGeometry>
        </mxCell>
        <mxCell id="v_SGCj1ZmdLSK05w3VIH-23" value="" style="endArrow=classic;html=1;rounded=0;" edge="1" parent="1">
          <mxGeometry width="50" height="50" relative="1" as="geometry">
            <mxPoint x="490" y="282" as="sourcePoint" />
            <mxPoint x="520" y="292" as="targetPoint" />
          </mxGeometry>
        </mxCell>
        <mxCell id="v_SGCj1ZmdLSK05w3VIH-26" value="" style="endArrow=classic;html=1;rounded=0;" edge="1" parent="1">
          <mxGeometry width="50" height="50" relative="1" as="geometry">
            <mxPoint x="484" y="307" as="sourcePoint" />
            <mxPoint x="514" y="317" as="targetPoint" />
          </mxGeometry>
        </mxCell>
        <mxCell id="v_SGCj1ZmdLSK05w3VIH-27" value="1.1: search()" style="text;html=1;align=center;verticalAlign=middle;resizable=0;points=[];autosize=1;strokeColor=none;fillColor=none;fontSize=8;fontColor=light-dark(#254ce9, #EDEDED);" vertex="1" parent="1">
          <mxGeometry x="296" y="157.5" width="70" height="20" as="geometry" />
        </mxCell>
        <mxCell id="v_SGCj1ZmdLSK05w3VIH-28" value="1.2 [interested]:&amp;nbsp;&lt;div&gt;view_book()&lt;/div&gt;" style="text;html=1;align=center;verticalAlign=middle;resizable=0;points=[];autosize=1;strokeColor=none;fillColor=none;fontSize=8;fontColor=light-dark(#254ce9, #EDEDED);" vertex="1" parent="1">
          <mxGeometry x="480" y="205" width="80" height="30" as="geometry" />
        </mxCell>
        <mxCell id="v_SGCj1ZmdLSK05w3VIH-29" value="1.3 [decided to buy]:&amp;nbsp;&lt;div&gt;add_to_cart()&lt;/div&gt;" style="text;html=1;align=center;verticalAlign=middle;resizable=0;points=[];autosize=1;strokeColor=none;fillColor=none;fontSize=8;fontColor=light-dark(#254ce9, #EDEDED);" vertex="1" parent="1">
          <mxGeometry x="495" y="267" width="100" height="30" as="geometry" />
        </mxCell>
        <mxCell id="v_SGCj1ZmdLSK05w3VIH-30" value="2: checkout()&amp;nbsp;" style="text;html=1;align=center;verticalAlign=middle;resizable=0;points=[];autosize=1;strokeColor=none;fillColor=none;fontSize=8;fontColor=light-dark(#FF3333,#EDEDED);" vertex="1" parent="1">
          <mxGeometry x="170" y="250" width="70" height="20" as="geometry" />
        </mxCell>
        <mxCell id="v_SGCj1ZmdLSK05w3VIH-31" value="2.2 [not empty(cart)]:&lt;div&gt;make_order()&lt;/div&gt;" style="text;html=1;align=center;verticalAlign=middle;resizable=0;points=[];autosize=1;strokeColor=none;fillColor=none;fontSize=8;fontColor=light-dark(#FF3333,#EDEDED);" vertex="1" parent="1">
          <mxGeometry x="281" y="320" width="100" height="30" as="geometry" />
        </mxCell>
        <mxCell id="v_SGCj1ZmdLSK05w3VIH-32" value="2.1: get_books()" style="text;html=1;align=center;verticalAlign=middle;resizable=0;points=[];autosize=1;strokeColor=none;fillColor=none;fontSize=8;fontColor=light-dark(#FF3333,#EDEDED);" vertex="1" parent="1">
          <mxGeometry x="429" y="308" width="80" height="20" as="geometry" />
        </mxCell>
        <mxCell id="v_SGCj1ZmdLSK05w3VIH-33" value="2.3 [order_complete]:&lt;div&gt;update_inventory()&lt;/div&gt;" style="text;html=1;align=center;verticalAlign=middle;resizable=0;points=[];autosize=1;strokeColor=none;fillColor=none;fontSize=8;fontColor=light-dark(#FF3333,#EDEDED);" vertex="1" parent="1">
          <mxGeometry x="407" y="139" width="100" height="30" as="geometry" />
        </mxCell>
      </root>
    </mxGraphModel>
  </diagram>
</mxfile>
